<svg width="128" height="128" viewBox="0 0 128 128" fill="none" xmlns="http://www.w3.org/2000/svg">
<rect width="128" height="128" rx="12" fill="black"/>
<path d="M25.5 63.5173V60.1776C28.4956 60.1776 30.5853 59.5492 31.7692 58.2923C32.9711 57.0355 33.572 54.9347 33.572 51.99V43.3715C33.572 40.8937 33.8052 38.7481 34.2715 36.9346C34.7559 35.1211 35.5361 33.6219 36.6124 32.4368C37.6887 31.2518 39.1237 30.372 40.9175 29.7974C42.7112 29.2228 44.9265 28.9355 47.5634 28.9355V34.2144C45.4826 34.2144 43.8413 34.5376 42.6395 35.184C41.4556 35.8304 40.6125 36.8358 40.1103 38.2004C39.6259 39.5471 39.3838 41.2708 39.3838 43.3715V54.1447C39.3838 55.5452 39.1954 56.82 38.8187 57.9691C38.46 59.1183 37.7873 60.1058 36.8008 60.9317C35.8142 61.7577 34.4061 62.3951 32.5764 62.844C30.7647 63.2929 28.4059 63.5173 25.5 63.5173ZM47.5634 97.8836C44.9265 97.8836 42.7112 97.5963 40.9175 97.0217C39.1237 96.4472 37.6887 95.5674 36.6124 94.3823C35.5361 93.1973 34.7559 91.698 34.2715 89.8845C33.8052 88.0711 33.572 85.9254 33.572 83.4476V74.8291C33.572 71.8844 32.9711 69.7837 31.7692 68.5268C30.5853 67.2699 28.4956 66.6415 25.5 66.6415V63.3018C28.4059 63.3018 30.7647 63.5263 32.5764 63.9752C34.4061 64.424 35.8142 65.0614 36.8008 65.8874C37.7873 66.7133 38.46 67.7009 38.8187 68.85C39.1954 69.9991 39.3838 71.2739 39.3838 72.6745V83.4476C39.3838 85.5484 39.6259 87.272 40.1103 88.6187C40.6125 89.9653 41.4556 90.9618 42.6395 91.6082C43.8413 92.2726 45.4826 92.6047 47.5634 92.6047V97.8836ZM25.5 66.6415V60.1776H31.8499V66.6415H25.5Z" fill="white"/>
<path d="M102.234 63.5173V60.1776C99.2388 60.1776 97.149 59.5492 95.9651 58.2923C94.7633 57.0355 94.1624 54.9347 94.1624 51.99V43.3715C94.1624 40.8937 93.9292 38.7481 93.4628 36.9346C92.9785 35.1211 92.1982 33.6219 91.122 32.4368C90.0457 31.2518 88.6107 30.372 86.8169 29.7974C85.0232 29.2228 82.8078 28.9355 80.171 28.9355V34.2144C82.2518 34.2144 83.8931 34.5376 85.0949 35.184C86.2788 35.8304 87.1219 36.8358 87.6241 38.2004C88.1084 39.5471 88.3506 41.2708 88.3506 43.3715V54.1447C88.3506 55.5452 88.5389 56.82 88.9156 57.9691C89.2744 59.1183 89.9471 60.1058 90.9336 60.9317C91.9202 61.7577 93.3283 62.3951 95.158 62.844C96.9697 63.2929 99.3285 63.5173 102.234 63.5173ZM80.171 97.8836C82.8078 97.8836 85.0232 97.5963 86.8169 97.0217C88.6107 96.4472 90.0457 95.5674 91.122 94.3823C92.1982 93.1973 92.9785 91.698 93.4628 89.8845C93.9292 88.0711 94.1624 85.9254 94.1624 83.4476V74.8291C94.1624 71.8844 94.7633 69.7837 95.9651 68.5268C97.149 67.2699 99.2388 66.6415 102.234 66.6415V63.3018C99.3285 63.3018 96.9697 63.5263 95.158 63.9752C93.3283 64.424 91.9202 65.0614 90.9336 65.8874C89.9471 66.7133 89.2744 67.7009 88.9156 68.85C88.5389 69.9991 88.3506 71.2739 88.3506 72.6745V83.4476C88.3506 85.5483 88.1084 87.272 87.6241 88.6187C87.1219 89.9653 86.2788 90.9618 85.0949 91.6082C83.8931 92.2726 82.2518 92.6047 80.171 92.6047V97.8836ZM102.234 66.6415V60.1776H95.8844V66.6415H102.234Z" fill="white"/>
<path d="M76.9277 27L57.2489 100.004H50.8086L70.4874 27H76.9277Z" fill="white"/>
</svg>
