<svg width="1024" height="1024" viewBox="0 0 1024 1024" fill="none" xmlns="http://www.w3.org/2000/svg">
<rect width="1024" height="1024" fill="black"/>
<path d="M205 512.138V485.421C228.965 485.421 245.683 480.394 255.154 470.339C264.768 460.284 269.576 443.478 269.576 419.92V350.972C269.576 331.15 271.441 313.985 275.172 299.477C279.047 284.969 285.289 272.975 293.899 263.495C302.509 254.014 313.989 246.976 328.34 242.379C342.69 237.783 360.412 235.484 381.507 235.484V277.715C364.861 277.715 351.73 280.301 342.116 285.472C332.645 290.643 325.9 298.687 321.882 309.604C318.008 320.377 316.07 334.166 316.07 350.972V437.157C316.07 448.361 314.563 458.56 311.55 467.753C308.68 476.946 303.299 484.846 295.406 491.454C287.513 498.061 276.249 503.161 261.611 506.752C247.118 510.343 228.247 512.138 205 512.138ZM381.507 787.069C360.412 787.069 342.69 784.77 328.34 780.174C313.989 775.577 302.509 768.539 293.899 759.059C285.289 749.578 279.047 737.584 275.172 723.076C271.441 708.568 269.576 691.403 269.576 671.581V602.633C269.576 579.075 264.768 562.269 255.154 552.214C245.683 542.159 228.965 537.132 205 537.132V510.415C228.247 510.415 247.118 512.21 261.611 515.801C276.249 519.392 287.513 524.492 295.406 531.099C303.299 537.707 308.68 545.607 311.55 554.8C314.563 563.993 316.07 574.192 316.07 585.396V671.581C316.07 688.387 318.008 702.176 321.882 712.949C325.9 723.723 332.645 731.695 342.116 736.866C351.73 742.181 364.861 744.838 381.507 744.838V787.069ZM205 537.132V485.421H255.8V537.132H205Z" fill="white"/>
<path d="M818.875 512.138V485.421C794.91 485.421 778.192 480.394 768.721 470.339C759.107 460.284 754.299 443.478 754.299 419.92V350.972C754.299 331.15 752.434 313.985 748.703 299.477C744.828 284.969 738.586 272.975 729.976 263.495C721.366 254.014 709.886 246.976 695.535 242.379C681.185 237.783 663.463 235.484 642.368 235.484V277.715C659.014 277.715 672.145 280.301 681.759 285.472C691.23 290.643 697.975 298.687 701.993 309.604C705.867 320.377 707.805 334.166 707.805 350.972V437.157C707.805 448.361 709.312 458.56 712.325 467.753C715.195 476.946 720.576 484.846 728.469 491.454C736.362 498.061 747.626 503.161 762.264 506.752C776.757 510.343 795.628 512.138 818.875 512.138ZM642.368 787.069C663.463 787.069 681.185 784.77 695.535 780.174C709.886 775.577 721.366 768.539 729.976 759.059C738.586 749.578 744.828 737.584 748.703 723.076C752.434 708.568 754.299 691.403 754.299 671.581V602.633C754.299 579.075 759.107 562.269 768.721 552.214C778.192 542.16 794.91 537.132 818.875 537.132V510.415C795.628 510.415 776.757 512.21 762.264 515.801C747.626 519.392 736.362 524.492 728.469 531.099C720.576 537.707 715.195 545.607 712.325 554.8C709.312 563.993 707.805 574.192 707.805 585.396V671.581C707.805 688.387 705.867 702.176 701.993 712.95C697.975 723.723 691.23 731.695 681.759 736.866C672.145 742.181 659.014 744.838 642.368 744.838V787.069ZM818.875 537.132V485.421H768.075V537.132H818.875Z" fill="white"/>
<path d="M616.422 220L458.991 804.03H407.469L564.899 220H616.422Z" fill="white"/>
</svg>
