<svg width="1024" height="1024" viewBox="0 0 1024 1024" fill="none" xmlns="http://www.w3.org/2000/svg">
<g clip-path="url(#clip0_1_3040)">
<rect width="1024" height="1024" fill="white"/>
<g opacity="0.5">
<rect x="0.5" y="0.5" width="1023" height="1023" fill="#F8F9FA"/>
<rect x="0.5" y="0.5" width="1023" height="1023" stroke="#FF3B30"/>
</g>
<path d="M204 508.138V481.421C227.965 481.421 244.683 476.394 254.154 466.339C263.768 456.284 268.576 439.478 268.576 415.92V346.972C268.576 327.15 270.441 309.985 274.172 295.477C278.047 280.969 284.289 268.975 292.899 259.495C301.509 250.014 312.989 242.976 327.34 238.379C341.69 233.783 359.412 231.484 380.507 231.484V273.715C363.861 273.715 350.73 276.301 341.116 281.472C331.645 286.643 324.9 294.687 320.882 305.604C317.008 316.377 315.07 330.166 315.07 346.972V433.157C315.07 444.361 313.563 454.56 310.55 463.753C307.68 472.946 302.299 480.846 294.406 487.454C286.513 494.061 275.249 499.161 260.611 502.752C246.118 506.343 227.247 508.138 204 508.138ZM380.507 783.069C359.412 783.069 341.69 780.77 327.34 776.174C312.989 771.577 301.509 764.539 292.899 755.059C284.289 745.578 278.047 733.584 274.172 719.076C270.441 704.568 268.576 687.403 268.576 667.581V598.633C268.576 575.075 263.768 558.269 254.154 548.214C244.683 538.159 227.965 533.132 204 533.132V506.415C227.247 506.415 246.118 508.21 260.611 511.801C275.249 515.392 286.513 520.492 294.406 527.099C302.299 533.707 307.68 541.607 310.55 550.8C313.563 559.993 315.07 570.192 315.07 581.396V667.581C315.07 684.387 317.008 698.176 320.882 708.949C324.9 719.723 331.645 727.695 341.116 732.866C350.73 738.181 363.861 740.838 380.507 740.838V783.069ZM204 533.132V481.421H254.8V533.132H204Z" fill="black"/>
<path d="M817.875 508.138V481.421C793.91 481.421 777.192 476.394 767.721 466.339C758.107 456.284 753.299 439.478 753.299 415.92V346.972C753.299 327.15 751.434 309.985 747.703 295.477C743.828 280.969 737.586 268.975 728.976 259.495C720.366 250.014 708.886 242.976 694.535 238.379C680.185 233.783 662.463 231.484 641.368 231.484V273.715C658.014 273.715 671.145 276.301 680.759 281.472C690.23 286.643 696.975 294.687 700.993 305.604C704.867 316.377 706.805 330.166 706.805 346.972V433.157C706.805 444.361 708.312 454.56 711.325 463.753C714.195 472.946 719.576 480.846 727.469 487.454C735.362 494.061 746.626 499.161 761.264 502.752C775.757 506.343 794.628 508.138 817.875 508.138ZM641.368 783.069C662.463 783.069 680.185 780.77 694.535 776.174C708.886 771.577 720.366 764.539 728.976 755.059C737.586 745.578 743.828 733.584 747.703 719.076C751.434 704.568 753.299 687.403 753.299 667.581V598.633C753.299 575.075 758.107 558.269 767.721 548.214C777.192 538.16 793.91 533.132 817.875 533.132V506.415C794.628 506.415 775.757 508.21 761.264 511.801C746.626 515.392 735.362 520.492 727.469 527.099C719.576 533.707 714.195 541.607 711.325 550.8C708.312 559.993 706.805 570.192 706.805 581.396V667.581C706.805 684.387 704.867 698.176 700.993 708.95C696.975 719.723 690.23 727.695 680.759 732.866C671.145 738.181 658.014 740.838 641.368 740.838V783.069ZM817.875 533.132V481.421H767.075V533.132H817.875Z" fill="black"/>
<path d="M615.422 216L457.991 800.03H406.469L563.899 216H615.422Z" fill="black"/>
</g>
<defs>
<clipPath id="clip0_1_3040">
<rect width="1024" height="1024" fill="white"/>
</clipPath>
</defs>
</svg>
